<?xml version="1.0" encoding="utf-8"?>
<!-- Generator: Adobe Illustrator 19.1.0, SVG Export Plug-In . SVG Version: 6.00 Build 0)  -->
<svg version="1.1" id="Layer_1" xmlns="http://www.w3.org/2000/svg" xmlns:xlink="http://www.w3.org/1999/xlink" x="0px" y="0px"
	 viewBox="0 0 380 190" style="enable-background:new 0 0 380 190;" xml:space="preserve">
<style type="text/css">
	.Arched_x0020_Green{fill:url(#SVGID_1_);stroke:#FFFFFF;stroke-width:0.25;stroke-miterlimit:1;}
	.st0{fill:#0A0F16;}
	.st1{clip-path:url(#SVGID_3_);fill:url(#SVGID_4_);}
	.st2{clip-path:url(#SVGID_6_);fill:url(#SVGID_7_);}
	.st3{clip-path:url(#SVGID_9_);fill:url(#SVGID_10_);}
	.st4{clip-path:url(#SVGID_12_);fill:url(#SVGID_13_);}
	.st5{fill:#FFFFFF;}
	.st6{clip-path:url(#SVGID_15_);fill:url(#SVGID_16_);}
	.st7{clip-path:url(#SVGID_18_);fill:url(#SVGID_19_);}
	.st8{clip-path:url(#SVGID_21_);fill:url(#SVGID_22_);}
	.st9{clip-path:url(#SVGID_24_);fill:url(#SVGID_25_);}
	.st10{clip-path:url(#SVGID_27_);fill:url(#SVGID_28_);}
	.st11{opacity:0.5;}
	.st12{clip-path:url(#SVGID_30_);fill:#F9BA00;}
	.st13{clip-path:url(#SVGID_32_);fill:url(#SVGID_33_);}
	.st14{clip-path:url(#SVGID_35_);fill:url(#SVGID_36_);}
	.st15{clip-path:url(#SVGID_38_);fill:url(#SVGID_39_);}
</style>
<linearGradient id="SVGID_1_" gradientUnits="userSpaceOnUse" x1="0.25" y1="817.3895874" x2="0.9571068" y2="816.6824951">
	<stop  offset="0" style="stop-color:#249E2E"/>
	<stop  offset="0.983146" style="stop-color:#1C371D"/>
</linearGradient>
<rect y="-0.0041" class="st0" width="380" height="190"/>
<g>
	<g>
		<defs>
			<path id="SVGID_2_" d="M144.7489014,53.1348991c-0.0220032-0.0229988-0.0449982-0.0429993-0.0699005-0.0658989
				L144.7489014,53.1348991z"/>
		</defs>
		<clipPath id="SVGID_3_">
			<use xlink:href="#SVGID_2_"  style="overflow:visible;"/>
		</clipPath>
		
			<linearGradient id="SVGID_4_" gradientUnits="userSpaceOnUse" x1="-292.4244995" y1="817.9863892" x2="-291.4645691" y2="817.9863892" gradientTransform="matrix(74.5614014 0 0 -74.5614014 21887.1699219 61043.3125)">
			<stop  offset="0" style="stop-color:#F19300"/>
			<stop  offset="0.1272928" style="stop-color:#F08A02"/>
			<stop  offset="0.3349178" style="stop-color:#ED7206"/>
			<stop  offset="0.5970114" style="stop-color:#E94A0D"/>
			<stop  offset="0.9005609" style="stop-color:#E31317"/>
			<stop  offset="1" style="stop-color:#E1001A"/>
		</linearGradient>
		<rect x="144.6790009" y="53.0690002" class="st1" width="0.0698963" height="0.0664"/>
	</g>
	<g>
		<defs>
			<path id="SVGID_5_" d="M144.7489014,53.1348991c-0.0220032-0.0229988-0.0449982-0.0429993-0.0699005-0.0658989
				L144.7489014,53.1348991z"/>
		</defs>
		<clipPath id="SVGID_6_">
			<use xlink:href="#SVGID_5_"  style="overflow:visible;"/>
		</clipPath>
		
			<linearGradient id="SVGID_7_" gradientUnits="userSpaceOnUse" x1="-296.4608154" y1="813.5772705" x2="-295.480835" y2="813.5772705" gradientTransform="matrix(0 -69.3834991 -69.3834991 0 56593.5507813 -20458.3535156)">
			<stop  offset="0" style="stop-color:#F19300"/>
			<stop  offset="0.1272928" style="stop-color:#F08A02"/>
			<stop  offset="0.3349178" style="stop-color:#ED7206"/>
			<stop  offset="0.5970114" style="stop-color:#E94A0D"/>
			<stop  offset="0.9005609" style="stop-color:#E31317"/>
			<stop  offset="1" style="stop-color:#E1001A"/>
		</linearGradient>
		<rect x="144.6790009" y="53.0690002" class="st2" width="0.0698963" height="0.0664"/>
	</g>
	<g>
		<defs>
			<path id="SVGID_8_" d="M102.1028976,58.9531975l5.8491058,5.8476982
				c3.2089996-3.2060966,7.6405945-5.1928978,12.5336914-5.1928978v-8.2719994
				C113.3079987,51.3359985,106.8079987,54.2481995,102.1028976,58.9531975"/>
		</defs>
		<clipPath id="SVGID_9_">
			<use xlink:href="#SVGID_8_"  style="overflow:visible;"/>
		</clipPath>
		
			<linearGradient id="SVGID_10_" gradientUnits="userSpaceOnUse" x1="-278.9263611" y1="818.1061401" x2="-277.9263611" y2="818.1061401" gradientTransform="matrix(17.2222004 0 0 -17.2222004 4906.862793 14147.6552734)">
			<stop  offset="0" style="stop-color:#F19300"/>
			<stop  offset="0.2294045" style="stop-color:#F08A03"/>
			<stop  offset="0.6033983" style="stop-color:#EB720A"/>
			<stop  offset="1" style="stop-color:#E65113"/>
		</linearGradient>
		<rect x="102.1028976" y="51.3359985" class="st3" width="18.3827991" height="13.4649"/>
	</g>
	<g>
		<defs>
			<path id="SVGID_11_" d="M96.3040009,53.0640984l-0.0522003,0.0419998l5.8510971,5.8470993
				c4.705101-4.704998,11.205101-7.6171989,18.3827972-7.6171989v-8.269001h0.0620041
				c-0.0220032,0-0.0419998-0.0028992-0.0620041-0.0028992C111.0466995,43.0640984,102.4968948,46.8829002,96.3040009,53.0640984"/>
		</defs>
		<clipPath id="SVGID_12_">
			<use xlink:href="#SVGID_11_"  style="overflow:visible;"/>
		</clipPath>
		
			<linearGradient id="SVGID_13_" gradientUnits="userSpaceOnUse" x1="-293.3842163" y1="814.890686" x2="-292.3852844" y2="814.890686" gradientTransform="matrix(48.8652992 -48.8652992 -48.8652992 -48.8652992 54233.375 25565.7910156)">
			<stop  offset="0" style="stop-color:#F19300"/>
			<stop  offset="0.1272928" style="stop-color:#F08A02"/>
			<stop  offset="0.3349178" style="stop-color:#ED7206"/>
			<stop  offset="0.5970114" style="stop-color:#E94A0D"/>
			<stop  offset="0.9005609" style="stop-color:#E31317"/>
			<stop  offset="1" style="stop-color:#E1001A"/>
		</linearGradient>
		<polygon class="st4" points="88.3075027,51.0084 108.3996964,30.9160995 128.4924927,51.0084 108.3996964,71.1011963 		"/>
	</g>
	<g>
		<path class="st5" d="M163.2370911,86.1094971h10.9605103c6.4066925,0,10.5585938,3.3120041,10.5585938,8.9208984v0.0727005
			c0,6.0429993-4.6239929,9.2124023-10.9228973,9.2124023h-3.5332031v7.2798004h-7.0630035V86.1094971z M173.6873016,98.7803955
			c2.4770966,0,4.0419922-1.346199,4.0419922-3.3510971v-0.0718002c0-2.1840973-1.5648956-3.3139191-4.0791016-3.3139191h-3.3500977
			v6.7368164H173.6873016z"/>
		<path class="st5" d="M186.1741943,98.9248962V98.853096c0-7.3202972,5.8988953-13.2543945,13.7640991-13.2543945
			c7.8638,0,13.6900024,5.8622971,13.6900024,13.1811981v0.0731964c0,7.3189011-5.8990021,13.2538986-13.7631989,13.2538986
			C192.0002899,112.1069946,186.1741943,106.2437973,186.1741943,98.9248962 M206.3822021,98.9248962V98.853096
			c0-3.7153015-2.621109-6.8823013-6.5171051-6.8823013s-6.4819946,3.1323013-6.4819946,6.8091049v0.0731964
			c0,3.6768036,2.6591949,6.8828049,6.555191,6.8828049C203.7971954,105.7359009,206.3822021,102.6021957,206.3822021,98.9248962"/>
		<polygon class="st5" points="216.5383911,86.1094971 223.6024017,86.1094971 223.6024017,105.4053955 235.9476013,105.4053955 
			235.9476013,111.5952988 216.5383911,111.5952988 		"/>
		<path class="st5" d="M238.274292,86.1094971h9.868103c9.0668945,0,14.3451843,5.2440796,14.3451843,12.5990829v0.0718155
			c0,7.3540039-5.352478,12.8149033-14.4911804,12.8149033h-9.7221069V86.1094971z M245.3381958,92.3345795V105.33358h2.8759918
			c4.2617035,0,7.0644989-2.3310852,7.0644989-6.445282v-0.0727997c0-4.0781021-2.8027954-6.4809189-7.0644989-6.4809189
			H245.3381958z"/>
		<polygon class="st5" points="265.434906,86.1094971 285.934906,86.1094971 285.934906,92.0806961 272.4250793,92.0806961 
			272.4250793,95.9761963 284.6594849,95.9761963 284.6594849,101.5484009 272.4250793,101.5484009 272.4250793,105.5895004 
			286.1164856,105.5895004 286.1164856,111.5952988 265.434906,111.5952988 		"/>
		<path class="st5" d="M289.0267029,86.1094971h12.0527039c3.8954773,0,6.5898743,1.0200043,8.3007813,2.7319031
			c1.4942017,1.490181,2.2578125,3.4208984,2.2578125,5.9340973v0.0718002c0,3.9330978-2.0742188,6.5179977-5.2441101,7.8662033
			l6.0820007,8.8817978h-8.1200867l-5.1328125-7.7168045h-3.1318054v7.7168045h-7.0644836V86.1094971z M300.7883911,98.3442993
			c2.3671875,0,3.7871094-1.1669006,3.7871094-3.0239029V95.2472c0-2.0366211-1.4941101-3.0567017-3.8242188-3.0567017h-4.6600952
			v6.153801H300.7883911z"/>
		<polygon class="st5" points="67.5550003,120.9297943 74.6190033,120.9297943 74.6190033,131.2700958 83.4309998,120.9297943 
			91.768898,120.9297943 82.1200027,131.8540955 92.0970001,146.4180908 83.6501999,146.4180908 77.2039032,136.9507904 
			74.6190033,139.7915802 74.6190033,146.4180908 67.5550003,146.4180908 		"/>
		<polygon class="st5" points="93.4056015,120.9297943 99.9963989,120.9297943 110.483696,134.3999939 110.483696,120.9297943 
			117.4734955,120.9297943 117.4734955,146.4180908 111.3205948,146.4180908 100.3967972,132.4337006 100.3967972,146.4180908 
			93.4056015,146.4180908 		"/>
		<path class="st5" d="M120.4202957,133.7467041v-0.0737c0-7.3194275,5.8989029-13.2535095,13.7641068-13.2535095
			c7.8638,0,13.6899872,5.8643036,13.6899872,13.1791992v0.0743103c0,7.3187866-5.8989868,13.2547913-13.7641907,13.2547913
			C126.2463989,146.9277954,120.4202957,141.0659943,120.4202957,133.7467041 M140.6282959,133.7467041v-0.0737
			c0-3.7124176-2.6210938-6.8824234-6.5180969-6.8824234c-3.8950043,0-6.4810028,3.1314163-6.4810028,6.8081131v0.0743103
			c0,3.6776886,2.6582031,6.8817902,6.5552063,6.8817902C138.0432892,140.5547943,140.6282959,137.4238892,140.6282959,133.7467041"
			/>
		<polygon class="st5" points="147.6170044,120.9297943 155.0818939,120.9297943 159.524292,135.6759033 164.4402924,120.8560944 
			170.5198975,120.8560944 175.4348907,135.6759033 179.8782959,120.9297943 187.1960907,120.9297943 178.6761017,146.5986938 
			172.524292,146.5986938 167.4250946,131.9268951 162.2908936,146.5986938 156.1380005,146.5986938 		"/>
		<polygon class="st5" points="189.2684021,120.9297943 196.3323975,120.9297943 196.3323975,140.2256927 208.6761017,140.2256927 
			208.6761017,146.4180908 189.2684021,146.4180908 		"/>
		<polygon class="st5" points="211.0041962,120.9297943 231.5041962,120.9297943 231.5041962,126.9009933 217.9954987,126.9009933 
			217.9954987,130.7969971 230.2292938,130.7969971 230.2292938,136.3677979 217.9954987,136.3677979 217.9954987,140.40979 
			231.6853943,140.40979 231.6853943,146.4180908 211.0041962,146.4180908 		"/>
		<path class="st5" d="M234.5964966,120.9292984h9.867691c9.0674133,0,14.3457184,5.2432022,14.3457184,12.5990982v0.0699005
			c0,7.3582764-5.3525085,12.8192749-14.4912109,12.8192749h-9.7221985V120.9292984z M241.6604919,127.1543961v12.9981003h2.8760071
			c4.2596893,0,7.0643921-2.3262024,7.0643921-6.4419098v-0.073288c0-4.0801086-2.8047028-6.4829025-7.0643921-6.4829025
			H241.6604919z"/>
		<path class="st5" d="M260.919281,133.7467041v-0.0737c0-7.4283066,5.8262024-13.2535095,13.6903992-13.2535095
			c4.4795227,0,7.647522,1.3471985,10.3418274,3.6772995l-4.1514282,5.0239029
			c-1.820282-1.5278015-3.6053772-2.403801-6.1512756-2.403801c-3.6807251,0-6.5205078,3.0600967-6.5205078,6.9561081v0.0737
			c0,4.1498718,2.8768921,7.0990906,6.9179077,7.0990906c1.7480774,0,3.0605774-0.3638,4.0800781-1.0542145v-3.0956879h-4.9902039
			v-5.1718903h11.6885071v11.4335785c-2.694397,2.258316-6.4072876,3.9702148-11.0673828,3.9702148
			C266.817688,146.9277954,260.919281,141.4649963,260.919281,133.7467041"/>
		<polygon class="st5" points="289.0267029,120.9297943 309.5267029,120.9297943 309.5267029,126.9009933 296.0188904,126.9009933 
			296.0188904,130.7969971 308.2532959,130.7969971 308.2532959,136.3677979 296.0188904,136.3677979 296.0188904,140.40979 
			309.7102966,140.40979 309.7102966,146.4180908 289.0267029,146.4180908 		"/>
		<g>
			<defs>
				<path id="SVGID_14_" d="M94.4950027,77.3292007c0,7.1786957,2.9017944,13.6786957,7.6107941,18.3808975
					c4.7022018,4.7060013,11.2022018,7.6147003,18.3798981,7.6147003c7.1810989,0,13.6743088-2.9067001,18.3759995-7.6128006
					l-5.8437958-5.8470993c-3.2051086,3.2070007-7.6400986,5.1869965-12.5322037,5.1869965
					c-4.8930969,0-9.3246918-1.9838943-12.5336914-5.1918945c-3.2051086-3.2041016-5.1880035-7.6367035-5.1880035-12.5307999
					c0-4.8911057,1.9828949-9.3193054,5.1880035-12.5283051l-5.8491058-5.8476982
					C97.3967972,63.6577988,94.4950027,70.1548996,94.4950027,77.3292007"/>
			</defs>
			<clipPath id="SVGID_15_">
				<use xlink:href="#SVGID_14_"  style="overflow:visible;"/>
			</clipPath>
			
				<linearGradient id="SVGID_16_" gradientUnits="userSpaceOnUse" x1="-300.6592102" y1="813.4777832" x2="-299.6593323" y2="813.4777832" gradientTransform="matrix(-35.4973984 -36.2524986 -36.2524986 35.4973984 18952.3652344 -39676.7773438)">
				<stop  offset="0" style="stop-color:#FDDEA7"/>
				<stop  offset="0.1158376" style="stop-color:#FDDB9E"/>
				<stop  offset="0.3048392" style="stop-color:#FBD386"/>
				<stop  offset="0.5435227" style="stop-color:#FAC65E"/>
				<stop  offset="0.8197138" style="stop-color:#F7B427"/>
				<stop  offset="1" style="stop-color:#F5A700"/>
			</linearGradient>
			<polygon class="st6" points="116.2112961,125.5034943 72.313797,80.6719971 117.1453934,36.774498 161.0428009,81.6060944 			"/>
		</g>
		<g>
			<defs>
				<path id="SVGID_17_" d="M102.1028976,58.9531975l5.8491058,5.8476982
					c3.2089996-3.2060966,7.6405945-5.1928978,12.5336914-5.1928978c4.8921051,0,9.327095,1.9828987,12.5322037,5.1899986
					c3.2041016,3.2080002,5.1869965,7.6371994,5.1869965,12.5312042c0,4.8988953-1.9828949,9.3305969-5.1869965,12.5356979
					l5.8437958,5.8470993c4.7080078-4.7031021,7.613205-11.2031021,7.613205-18.3827972
					c0-7.1772003-2.9051971-13.6743011-7.6069031-18.3794022c-4.7079926-4.7015991-11.2012024-7.6138-18.3823013-7.6138
					C113.3079987,51.3359985,106.8079987,54.2481995,102.1028976,58.9531975"/>
			</defs>
			<clipPath id="SVGID_18_">
				<use xlink:href="#SVGID_17_"  style="overflow:visible;"/>
			</clipPath>
			
				<linearGradient id="SVGID_19_" gradientUnits="userSpaceOnUse" x1="-301.4859314" y1="813.05896" x2="-300.4858398" y2="813.05896" gradientTransform="matrix(-30.2192001 -30.2192001 -30.2192001 30.2192001 15596.4335938 -33594.3164063)">
				<stop  offset="0" style="stop-color:#E54515"/>
				<stop  offset="0.2583768" style="stop-color:#EB690E"/>
				<stop  offset="0.5827996" style="stop-color:#F29106"/>
				<stop  offset="0.8414229" style="stop-color:#F6A902"/>
				<stop  offset="1" style="stop-color:#F8B200"/>
			</linearGradient>
			<polygon class="st7" points="124.2888947,117.8980942 79.9149017,73.5239944 124.2888947,29.1499996 168.6629028,73.5239944 			
				"/>
		</g>
		<g>
			<defs>
				<path id="SVGID_20_" d="M96.3040009,53.0640984l-0.0522003,0.0419998l0.0083008,0.0028992
					c-6.198204,6.2012024-10.0361023,14.7588005-10.0361023,24.2202034c0,9.4638977,3.8378983,18.0277939,10.0278015,24.2299957
					l0.0141983,0.010704c6.2041016,6.1962967,14.759697,10.0248947,24.219696,10.0248947v-8.2699966
					c-7.1776962,0-13.6776962-2.908699-18.3798981-7.6147003c-4.7089996-4.7022018-7.6107941-11.2022018-7.6107941-18.3808975
					c0-7.1743011,2.9017944-13.671402,7.6078949-18.3760033c4.705101-4.704998,11.205101-7.6171989,18.3827972-7.6171989v-8.269001
					h0.0620041c-0.0220032,0-0.0419998-0.0028992-0.0620041-0.0028992
					C111.0466995,43.0640984,102.4968948,46.8829002,96.3040009,53.0640984"/>
			</defs>
			<clipPath id="SVGID_21_">
				<use xlink:href="#SVGID_20_"  style="overflow:visible;"/>
			</clipPath>
			
				<linearGradient id="SVGID_22_" gradientUnits="userSpaceOnUse" x1="-296.4745178" y1="813.5238037" x2="-295.4745483" y2="813.5238037" gradientTransform="matrix(0 -68.5317001 -68.5317001 0 55855.5585938 -20206.3085938)">
				<stop  offset="0" style="stop-color:#C3071C"/>
				<stop  offset="0.0736777" style="stop-color:#C70F1B"/>
				<stop  offset="0.4706767" style="stop-color:#D83317"/>
				<stop  offset="0.7935418" style="stop-color:#E24914"/>
				<stop  offset="1" style="stop-color:#E65113"/>
			</linearGradient>
			<rect x="86.223999" y="43.0640984" class="st8" width="34.3236961" height="68.5311966"/>
		</g>
		<g>
			<defs>
				<path id="SVGID_23_" d="M120.4856949,43.0669975v8.269001c7.1810989,0,13.6743088,2.9122009,18.3823013,7.6138
					c4.7017059,4.705101,7.6069031,11.2022018,7.6069031,18.3794022c0,7.1796951-2.9051971,13.6796951-7.613205,18.3827972
					c-4.7016907,4.7061005-11.1949005,7.6128006-18.3759995,7.6128006v8.2699966
					c9.4590073,0,18.0283127-3.8348999,24.232399-10.033699l0.0088043-0.0189972
					c6.1947937-6.1973038,10.0200043-14.7593002,10.0200043-24.2128983c0-9.4360046-3.8169098-17.9800034-9.983902-24.1772003
					c-0.0102081-0.0059013-0.0102081-0.0118027-0.0140991-0.0171013l-0.0699005-0.0658989
					c-6.1772003-6.1680031-14.7114105-9.9859009-24.1313019-10.0020027H120.4856949z"/>
			</defs>
			<clipPath id="SVGID_24_">
				<use xlink:href="#SVGID_23_"  style="overflow:visible;"/>
			</clipPath>
			
				<linearGradient id="SVGID_25_" gradientUnits="userSpaceOnUse" x1="-296.5680542" y1="822.3762207" x2="-295.5680542" y2="822.3762207" gradientTransform="matrix(0 68.5278015 68.5278015 0 -56218.0195313 20366.2226563)">
				<stop  offset="0" style="stop-color:#F19300"/>
				<stop  offset="0.1272928" style="stop-color:#F08A02"/>
				<stop  offset="0.3349178" style="stop-color:#ED7206"/>
				<stop  offset="0.5970114" style="stop-color:#E94A0D"/>
				<stop  offset="0.9005609" style="stop-color:#E31317"/>
				<stop  offset="1" style="stop-color:#E1001A"/>
			</linearGradient>
			<rect x="120.4856949" y="43.0669975" class="st9" width="34.2612" height="68.5278015"/>
		</g>
		<g>
			<defs>
				<path id="SVGID_26_" d="M86.223999,77.3292007h8.2710037c0-7.1743011,2.9017944-13.671402,7.6078949-18.3760033
					l-5.846199-5.8423004C90.0579987,59.3111,86.223999,67.8712006,86.223999,77.3292007 M96.2518005,53.1060982
					l0.0048981,0.0047989c0.016098-0.016098,0.0312042-0.0306969,0.0473022-0.0467987L96.2518005,53.1060982z"/>
			</defs>
			<clipPath id="SVGID_27_">
				<use xlink:href="#SVGID_26_"  style="overflow:visible;"/>
			</clipPath>
			
				<linearGradient id="SVGID_28_" gradientUnits="userSpaceOnUse" x1="-293.3817749" y1="814.8931885" x2="-292.3825073" y2="814.8931885" gradientTransform="matrix(48.8571014 -48.8571014 -48.8571014 -48.8571014 54224.2695313 25561.7285156)">
				<stop  offset="0" style="stop-color:#E1001A"/>
				<stop  offset="0.0994391" style="stop-color:#E31317"/>
				<stop  offset="0.4029886" style="stop-color:#E94A0D"/>
				<stop  offset="0.6650822" style="stop-color:#ED7206"/>
				<stop  offset="0.8727072" style="stop-color:#F08A02"/>
				<stop  offset="1" style="stop-color:#F19300"/>
			</linearGradient>
			<polygon class="st10" points="74.0912018,65.1963959 94.1633987,45.1245804 114.235199,65.1963959 94.1633987,85.2686996 			"/>
		</g>
		<g class="st11">
			<g>
				<defs>
					<rect id="SVGID_29_" x="138.8679962" y="53.1030998" width="15.8788958" height="24.226099"/>
				</defs>
				<clipPath id="SVGID_30_">
					<use xlink:href="#SVGID_29_"  style="overflow:visible;"/>
				</clipPath>
				<path class="st12" d="M138.8679962,58.9502983c4.7021942,4.705101,7.6060028,11.202198,7.6060028,18.3789024h8.2718964
					c0-9.4360046-3.8159027-17.9800034-9.9828949-24.1777039l-0.0449066-0.0483971L138.8679962,58.9502983z"/>
			</g>
		</g>
		<g>
			<defs>
				<path id="SVGID_31_" d="M94.4950027,77.3292007c0,7.1786957,2.9017944,13.6786957,7.6107941,18.3808975l5.8462067-5.8500977
					c-3.2051086-3.2041016-5.1880035-7.6367035-5.1880035-12.5307999H94.4950027z"/>
			</defs>
			<clipPath id="SVGID_32_">
				<use xlink:href="#SVGID_31_"  style="overflow:visible;"/>
			</clipPath>
			
				<linearGradient id="SVGID_33_" gradientUnits="userSpaceOnUse" x1="-296.7206421" y1="835.3148804" x2="-295.7209167" y2="835.3148804" gradientTransform="matrix(0 17.4487 17.4487 0 -14473.9355469 5255.1958008)">
				<stop  offset="0" style="stop-color:#E1001A"/>
				<stop  offset="0.1272928" style="stop-color:#E20918"/>
				<stop  offset="0.3349178" style="stop-color:#E52114"/>
				<stop  offset="0.5970114" style="stop-color:#E9490D"/>
				<stop  offset="0.9005609" style="stop-color:#EF8003"/>
				<stop  offset="1" style="stop-color:#F19300"/>
			</linearGradient>
			<rect x="94.4950027" y="77.3292007" class="st13" width="13.4569998" height="18.3808994"/>
		</g>
		<g>
			<defs>
				<path id="SVGID_34_" d="M120.4856949,95.0518951v8.2729034c7.1810989,0,13.6743088-2.9067001,18.3759995-7.6128006
					l-5.8437958-5.8470993C129.8127899,93.0718994,125.3778,95.0518951,120.4856949,95.0518951"/>
			</defs>
			<clipPath id="SVGID_35_">
				<use xlink:href="#SVGID_34_"  style="overflow:visible;"/>
			</clipPath>
			
				<linearGradient id="SVGID_36_" gradientUnits="userSpaceOnUse" x1="-291.2931519" y1="812.781189" x2="-290.2928162" y2="812.781189" gradientTransform="matrix(29.2273998 -29.2273998 -29.2273998 -29.2273998 32097.6621094 15639.5693359)">
				<stop  offset="0" style="stop-color:#E85D10"/>
				<stop  offset="0.2659597" style="stop-color:#E9660D"/>
				<stop  offset="0.6981802" style="stop-color:#EE7E06"/>
				<stop  offset="1" style="stop-color:#F19300"/>
			</linearGradient>
			<polygon class="st14" points="113.7556992,96.5952988 129.6736908,80.6773987 145.5915985,96.5952988 129.6736908,112.513298 			
				"/>
		</g>
		<g>
			<defs>
				<path id="SVGID_37_" d="M146.4748993,77.3292007c0,7.1786957-2.9051971,13.6786957-7.613205,18.3827972l5.8500977,5.8471985
					l0.0410004-0.0439987c6.1772003-6.197197,9.9941101-14.7441025,9.9941101-24.185997H146.4748993z M154.7469025,77.3292007
					v-0.0591049V77.3292007z"/>
			</defs>
			<clipPath id="SVGID_38_">
				<use xlink:href="#SVGID_37_"  style="overflow:visible;"/>
			</clipPath>
			
				<linearGradient id="SVGID_39_" gradientUnits="userSpaceOnUse" x1="-296.6736145" y1="830.8392944" x2="-295.6736145" y2="830.8392944" gradientTransform="matrix(0 23.4976006 23.4976006 0 -19375.9257813 7048.3076172)">
				<stop  offset="0" style="stop-color:#E85D10"/>
				<stop  offset="0.1904663" style="stop-color:#EA660E"/>
				<stop  offset="0.5009366" style="stop-color:#EE7E0A"/>
				<stop  offset="0.8907364" style="stop-color:#F6A602"/>
				<stop  offset="1" style="stop-color:#F8B200"/>
			</linearGradient>
			<rect x="138.8616943" y="77.2700958" class="st15" width="15.8851995" height="24.2890987"/>
		</g>
	</g>
</g>
</svg>
